<svg width="40" height="40" viewBox="0 0 40 40" fill="none" xmlns="http://www.w3.org/2000/svg">
<path d="M34.8333 3.33398H5.16665C4.68042 3.33398 4.2141 3.52714 3.87028 3.87096C3.52647 4.21477 3.33331 4.68109 3.33331 5.16732V34.834C3.33331 35.0747 3.38073 35.3131 3.47287 35.5356C3.565 35.758 3.70004 35.9601 3.87028 36.1303C4.04052 36.3006 4.24263 36.4356 4.46506 36.5278C4.68749 36.6199 4.92589 36.6673 5.16665 36.6673H21.1333V23.7507H16.8V18.7507H21.1333V15.0007C21.0436 14.1202 21.1475 13.2309 21.4378 12.3949C21.7282 11.5589 22.1979 10.7966 22.8141 10.1613C23.4303 9.52611 24.1779 9.03339 25.0047 8.71771C25.8314 8.40204 26.7173 8.27107 27.6 8.33398C28.8972 8.326 30.1938 8.39278 31.4833 8.53398V13.034H28.8333C26.7333 13.034 26.3333 14.034 26.3333 15.484V18.7007H31.3333L30.6833 23.7007H26.3333V36.6673H34.8333C35.0741 36.6673 35.3125 36.6199 35.5349 36.5278C35.7573 36.4356 35.9594 36.3006 36.1297 36.1303C36.2999 35.9601 36.435 35.758 36.5271 35.5356C36.6192 35.3131 36.6666 35.0747 36.6666 34.834V5.16732C36.6666 4.92656 36.6192 4.68816 36.5271 4.46573C36.435 4.2433 36.2999 4.0412 36.1297 3.87096C35.9594 3.70071 35.7573 3.56567 35.5349 3.47354C35.3125 3.38141 35.0741 3.33398 34.8333 3.33398Z" fill="#FAFAFA"/>
</svg>
