<svg width="57" height="57" viewBox="0 0 57 57" fill="none" xmlns="http://www.w3.org/2000/svg">
<path d="M43.6795 28.5H37.25C36.7859 28.5 36.3407 28.6844 36.0126 29.0126C35.6844 29.3408 35.5 29.7859 35.5 30.25V46C35.5 46.4641 35.6844 46.9093 36.0126 47.2374C36.3407 47.5656 36.7859 47.75 37.25 47.75H43.6795C45.2229 47.7481 46.7026 47.1341 47.7938 46.0426C48.885 44.951 49.4986 43.4712 49.5 41.9278V34.3222C49.4986 32.7788 48.885 31.299 47.7938 30.2074C46.7026 29.1159 45.2229 28.5019 43.6795 28.5ZM46 41.9278C45.9995 42.5432 45.755 43.1333 45.3199 43.5687C44.8849 44.0041 44.295 44.2491 43.6795 44.25H39V32H43.6795C44.295 32.0009 44.8849 32.2459 45.3199 32.6813C45.755 33.1167 45.9995 33.7068 46 34.3222V41.9278ZM19.75 28.5H13.3205C11.7771 28.5019 10.2974 29.1159 9.20621 30.2074C8.11501 31.299 7.50139 32.7788 7.5 34.3222V41.9295C7.50185 43.4726 8.11568 44.952 9.20683 46.0432C10.298 47.1343 11.7774 47.7481 13.3205 47.75H19.75C20.2141 47.75 20.6592 47.5656 20.9874 47.2374C21.3156 46.9093 21.5 46.4641 21.5 46V30.25C21.5 29.7859 21.3156 29.3408 20.9874 29.0126C20.6592 28.6844 20.2141 28.5 19.75 28.5ZM18 44.25H13.3205C12.705 44.2491 12.1151 44.0041 11.6801 43.5687C11.245 43.1333 11.0005 42.5432 11 41.9278V34.3222C11.0005 33.7068 11.245 33.1167 11.6801 32.6813C12.1151 32.2459 12.705 32.0009 13.3205 32H18V44.25Z" fill="#F46B5B"/>
<path d="M42.4997 26.7497C42.4348 26.75 42.3699 26.7465 42.3054 26.7392C41.8454 26.6882 41.4244 26.4569 41.1345 26.0962C40.8445 25.7354 40.7093 25.2745 40.7584 24.8142C40.7584 24.7547 41.3867 18.4705 37.7834 14.463C36.5757 13.2526 35.1212 12.3168 33.5192 11.7191C31.9171 11.1215 30.2051 10.8761 28.4997 10.9997C26.7945 10.875 25.0825 11.1191 23.4801 11.7155C21.8778 12.312 20.4228 13.2467 19.2142 14.456C15.6092 18.4635 16.2392 24.7477 16.2392 24.8107C16.2853 25.2698 16.1483 25.7285 15.8579 26.087C15.5675 26.4456 15.1473 26.6749 14.6887 26.7252C14.2301 26.7755 13.7702 26.6426 13.409 26.3556C13.0478 26.0685 12.8147 25.6504 12.7602 25.1922C12.7252 24.8737 11.9464 17.326 16.5909 12.1372C18.1213 10.5474 19.9789 9.30923 22.0352 8.50848C24.0914 7.70772 26.2972 7.36353 28.4997 7.49973C30.7007 7.36482 32.9048 7.70965 34.9595 8.51036C37.0141 9.31107 38.8703 10.5486 40.3997 12.1372C45.0442 17.3277 44.2654 24.8737 44.2304 25.1922C44.1832 25.6189 43.9808 26.0134 43.6617 26.3006C43.3426 26.5878 42.929 26.7476 42.4997 26.7497Z" fill="#383838"/>
</svg>
