<svg width="40" height="40" viewBox="0 0 40 40" fill="none" xmlns="http://www.w3.org/2000/svg">
<path d="M28.9 9.10065C28.5044 9.10065 28.1177 9.21795 27.7888 9.43771C27.4599 9.65748 27.2036 9.96983 27.0522 10.3353C26.9008 10.7007 26.8612 11.1029 26.9384 11.4908C27.0156 11.8788 27.2061 12.2352 27.4858 12.5149C27.7655 12.7946 28.1218 12.9851 28.5098 13.0622C28.8978 13.1394 29.2999 13.0998 29.6653 12.9484C30.0308 12.797 30.3432 12.5407 30.5629 12.2118C30.7827 11.8829 30.9 11.4962 30.9 11.1007C30.9 10.5702 30.6893 10.0615 30.3142 9.68644C29.9391 9.31137 29.4304 9.10065 28.9 9.10065ZM36.5667 13.134C36.5342 11.7511 36.2752 10.383 35.8 9.08398C35.3762 7.97254 34.7166 6.96612 33.8666 6.13398C33.0414 5.27969 32.0326 4.62428 30.9166 4.21732C29.6211 3.72759 28.2514 3.46267 26.8666 3.43398C25.1 3.33398 24.5333 3.33398 20 3.33398C15.4666 3.33398 14.9 3.33398 13.1333 3.43398C11.7486 3.46267 10.3789 3.72759 9.08331 4.21732C7.96944 4.6284 6.96154 5.28325 6.13331 6.13398C5.27902 6.95928 4.62361 7.96805 4.21665 9.08398C3.72691 10.3796 3.462 11.7492 3.43331 13.134C3.33331 14.9007 3.33331 15.4673 3.33331 20.0007C3.33331 24.534 3.33331 25.1007 3.43331 26.8673C3.462 28.2521 3.72691 29.6217 4.21665 30.9173C4.62361 32.0333 5.27902 33.042 6.13331 33.8673C6.96154 34.7181 7.96944 35.3729 9.08331 35.784C10.3789 36.2737 11.7486 36.5386 13.1333 36.5673C14.9 36.6673 15.4666 36.6673 20 36.6673C24.5333 36.6673 25.1 36.6673 26.8666 36.5673C28.2514 36.5386 29.6211 36.2737 30.9166 35.784C32.0326 35.377 33.0414 34.7216 33.8666 33.8673C34.7204 33.0383 35.3805 32.031 35.8 30.9173C36.2752 29.6183 36.5342 28.2502 36.5667 26.8673C36.5667 25.1007 36.6666 24.534 36.6666 20.0007C36.6666 15.4673 36.6666 14.9007 36.5667 13.134ZM33.5666 26.6673C33.5545 27.7253 33.3629 28.7735 33 29.7673C32.7339 30.4926 32.3064 31.148 31.75 31.684C31.2094 32.2348 30.5554 32.6614 29.8333 32.934C28.8395 33.2969 27.7913 33.4885 26.7333 33.5007C25.0666 33.584 24.45 33.6007 20.0666 33.6007C15.6833 33.6007 15.0666 33.6007 13.4 33.5007C12.3015 33.5212 11.2076 33.3521 10.1666 33.0007C9.47628 32.7141 8.85224 32.2886 8.33331 31.7507C7.78013 31.2152 7.35805 30.5593 7.09998 29.834C6.69307 28.8259 6.46739 27.7539 6.43331 26.6673C6.43331 25.0007 6.33331 24.384 6.33331 20.0007C6.33331 15.6173 6.33331 15.0007 6.43331 13.334C6.44078 12.2524 6.63823 11.1806 7.01665 10.1673C7.31006 9.46384 7.76042 8.83675 8.33331 8.33398C8.83967 7.76093 9.46546 7.30581 10.1666 7.00065C11.1826 6.63406 12.2533 6.44245 13.3333 6.43398C15 6.43398 15.6166 6.33398 20 6.33398C24.3833 6.33398 25 6.33398 26.6666 6.43398C27.7246 6.44612 28.7728 6.63773 29.7666 7.00065C30.524 7.28174 31.2038 7.73873 31.75 8.33398C32.2962 8.84595 32.7229 9.47187 33 10.1673C33.3704 11.1822 33.5621 12.2536 33.5666 13.334C33.65 15.0007 33.6666 15.6173 33.6666 20.0007C33.6666 24.384 33.65 25.0007 33.5666 26.6673ZM20 11.4507C18.3097 11.4539 16.6583 11.9582 15.2544 12.8997C13.8506 13.8412 12.7573 15.1776 12.1127 16.7402C11.4681 18.3028 11.3012 20.0214 11.633 21.6789C11.9648 23.3363 12.7804 24.8582 13.9768 26.0523C15.1732 27.2464 16.6967 28.059 18.3547 28.3876C20.0128 28.7161 21.7311 28.5458 23.2924 27.8982C24.8538 27.2506 26.1881 26.1547 27.1269 24.749C28.0656 23.3434 28.5666 21.691 28.5666 20.0007C28.5689 18.8758 28.3487 17.7617 27.9187 16.7222C27.4888 15.6828 26.8576 14.7387 26.0614 13.9441C25.2653 13.1495 24.3199 12.5201 23.2796 12.0922C22.2394 11.6643 21.1248 11.4463 20 11.4507ZM20 25.5507C18.9023 25.5507 17.8293 25.2252 16.9166 24.6153C16.0039 24.0055 15.2925 23.1387 14.8724 22.1245C14.4524 21.1104 14.3425 19.9945 14.5566 18.9179C14.7708 17.8413 15.2994 16.8524 16.0755 16.0762C16.8517 15.3 17.8406 14.7714 18.9172 14.5573C19.9938 14.3431 21.1097 14.4531 22.1239 14.8731C23.138 15.2932 24.0048 16.0045 24.6146 16.9172C25.2245 17.8299 25.55 18.903 25.55 20.0007C25.55 20.7295 25.4064 21.4512 25.1275 22.1245C24.8486 22.7979 24.4398 23.4097 23.9244 23.9251C23.4091 24.4405 22.7972 24.8493 22.1239 25.1282C21.4505 25.4071 20.7288 25.5507 20 25.5507Z" fill="#FAFAFA"/>
</svg>
