<svg width="32" height="32" viewBox="0 0 32 32" fill="none" xmlns="http://www.w3.org/2000/svg">
<path d="M20.3529 7.03125C18.8245 7.03064 17.3217 7.42325 15.9889 8.17132C14.6237 7.40826 13.0827 7.01542 11.5188 7.03175C9.95492 7.04809 8.42247 7.47304 7.0735 8.26444C5.72453 9.05585 4.60592 10.1862 3.82865 11.5434C3.05138 12.9005 2.64246 14.4373 2.64246 16.0013C2.64246 17.5653 3.05138 19.1021 3.82865 20.4593C4.60592 21.8164 5.72453 22.9468 7.0735 23.7382C8.42247 24.5296 9.95492 24.9545 11.5188 24.9709C13.0827 24.9872 14.6237 24.5944 15.9889 23.8313C17.1854 24.4983 18.5189 24.8823 19.8869 24.9538C21.2549 25.0253 22.6211 24.7824 23.8806 24.2439C25.1402 23.7053 26.2596 22.8853 27.153 21.8468C28.0463 20.8084 28.6899 19.579 29.0343 18.2532C29.3787 16.9273 29.4148 15.5402 29.1398 14.1982C28.8647 12.8562 28.2859 11.5951 27.4477 10.5116C26.6095 9.42815 25.5342 8.5511 24.3043 7.9478C23.0744 7.3445 21.7227 7.03099 20.3529 7.03132V7.03125ZM13.6495 21.9414C12.9995 22.174 12.3153 22.2967 11.625 22.3047C9.95322 22.3047 8.34993 21.6406 7.16782 20.4585C5.9857 19.2764 5.3216 17.6731 5.3216 16.0013C5.3216 14.3296 5.9857 12.7263 7.16782 11.5442C8.34993 10.3621 9.95322 9.69796 11.625 9.69796C12.3153 9.70594 12.9995 9.82874 13.6495 10.0613C12.1897 11.6955 11.3828 13.8101 11.3828 16.0013C11.3828 18.1926 12.1897 20.3071 13.6495 21.9413V21.9414ZM15.9889 20.5315C15.376 19.9469 14.8881 19.2439 14.5547 18.4653C14.2213 17.6866 14.0495 16.8483 14.0495 16.0013C14.0495 15.1543 14.2213 14.316 14.5547 13.5374C14.8881 12.7587 15.376 12.0558 15.9889 11.4711C16.6018 12.0558 17.0898 12.7587 17.4231 13.5374C17.7565 14.316 17.9284 15.1543 17.9284 16.0013C17.9284 16.8483 17.7565 17.6866 17.4231 18.4653C17.0898 19.2439 16.6018 19.9469 15.9889 20.5315ZM20.3529 22.3047C19.6625 22.2967 18.9784 22.1739 18.3284 21.9413C19.7881 20.3071 20.595 18.1926 20.595 16.0013C20.595 13.8101 19.7881 11.6955 18.3284 10.0613C18.9784 9.82874 19.6625 9.70594 20.3529 9.69796C22.0246 9.69796 23.6279 10.3621 24.81 11.5442C25.9921 12.7263 26.6562 14.3296 26.6562 16.0013C26.6562 17.6731 25.9921 19.2764 24.81 20.4585C23.6279 21.6406 22.0246 22.3047 20.3529 22.3047V22.3047Z" fill="#383838"/>
</svg>
