<svg width="32" height="32" viewBox="0 0 32 32" fill="none" xmlns="http://www.w3.org/2000/svg">
<path d="M27.2493 9.4733C27.0191 9.21519 26.7632 8.98119 26.4856 8.7749C26.5996 7.88171 26.5208 6.97446 26.2545 6.11428C25.9882 5.25411 25.5407 4.46101 24.942 3.78841C23.4967 2.1595 21.0332 1.33398 17.6191 1.33398H9.33396C8.7354 1.33558 8.1569 1.54992 7.7018 1.93871C7.2467 2.3275 6.94465 2.86542 6.84958 3.45638L3.39645 25.3314C3.3476 25.6246 3.36327 25.9249 3.44239 26.2115C3.5215 26.498 3.66216 26.7638 3.85454 26.9904C4.04692 27.217 4.2864 27.3989 4.5563 27.5235C4.82619 27.648 5.12 27.7122 5.41725 27.7116H8.96937L8.86004 28.4056C8.81582 28.6848 8.83265 28.9702 8.90934 29.2422C8.98604 29.5143 9.12079 29.7665 9.30431 29.9814C9.48784 30.1964 9.71577 30.369 9.97242 30.4874C10.2291 30.6058 10.5083 30.6672 10.791 30.6673H15.1035C15.6621 30.6718 16.2041 30.4769 16.632 30.1178C17.0599 29.7586 17.3457 29.2586 17.4382 28.7077L18.2923 23.3327L18.3067 23.2598H18.7051C24.0814 23.2598 27.4395 20.6022 28.4186 15.5762C28.7173 14.5386 28.7671 13.4453 28.564 12.3849C28.3608 11.3245 27.9104 10.3269 27.2493 9.4733ZM10.4564 18.2728L9.50372 24.3198L9.38864 25.0449H6.14125L9.46286 4.00065H17.6191C20.1998 4.00065 22.0423 4.53972 22.942 5.55273C23.3667 6.04652 23.6629 6.63754 23.8043 7.27331C23.9457 7.90908 23.9279 8.56993 23.7526 9.19718L23.7278 9.34684C23.7116 9.44881 23.6968 9.54842 23.6699 9.67513C23.4128 11.5804 22.4606 13.3233 20.9964 14.5692C19.3526 15.7123 17.3715 16.268 15.373 16.1465H12.942C12.3417 16.1445 11.7607 16.358 11.3045 16.7482C10.8483 17.1384 10.5474 17.6794 10.4564 18.2728ZM25.8014 15.0658C25.067 18.8366 22.8118 20.5931 18.705 20.5931H18.0605C17.5013 20.5888 16.9589 20.7841 16.5309 21.1441C16.1029 21.5041 15.8174 22.0049 15.7259 22.5566L14.86 27.9889L11.623 28.0006L12.2606 23.9555L13.0754 18.8184H15.3678C15.5769 18.8184 15.7617 18.7869 15.9653 18.7798C16.4437 18.7633 16.9208 18.7449 17.3689 18.6893C17.6425 18.6552 17.8937 18.593 18.156 18.5444C18.5193 18.4772 18.8829 18.4108 19.2241 18.316C19.4779 18.2453 19.7148 18.1544 19.9562 18.0685C20.2752 17.9553 20.5893 17.8365 20.8863 17.6969C21.1103 17.5915 21.3237 17.4742 21.535 17.3539C21.8164 17.1946 22.0889 17.0202 22.3515 16.8316C22.5412 16.6948 22.7274 16.5544 22.9049 16.4036C23.1564 16.1868 23.3955 15.9558 23.6208 15.7117C23.7714 15.551 23.9257 15.395 24.0652 15.2221C24.2966 14.9272 24.5103 14.6188 24.7052 14.2986C24.8072 14.1356 24.9202 13.9849 25.014 13.8135C25.2841 13.3192 25.5162 12.8052 25.7084 12.2758C25.7199 12.244 25.7364 12.2171 25.7477 12.1851C25.7531 12.1701 25.7609 12.1577 25.7662 12.1426C26.0304 13.0976 26.0425 14.1047 25.8014 15.0658Z" fill="#383838"/>
</svg>
