<svg width="57" height="57" viewBox="0 0 57 57" fill="none" xmlns="http://www.w3.org/2000/svg">
<path d="M47.75 18H42.5V12.75C42.5 12.2859 42.3156 11.8408 41.9874 11.5126C41.6592 11.1844 41.2141 11 40.75 11H37.25V9.25C37.25 8.78587 37.0656 8.34075 36.7374 8.01256C36.4093 7.68437 35.9641 7.5 35.5 7.5H21.5C21.0359 7.5 20.5908 7.68437 20.2626 8.01256C19.9344 8.34075 19.75 8.78587 19.75 9.25V11H16.25C15.7859 11 15.3408 11.1844 15.0126 11.5126C14.6844 11.8408 14.5 12.2859 14.5 12.75V18H9.25C8.78587 18 8.34075 18.1844 8.01256 18.5126C7.68437 18.8408 7.5 19.2859 7.5 19.75V37.25C7.5 37.7141 7.68437 38.1593 8.01256 38.4874C8.34075 38.8156 8.78587 39 9.25 39H15.935L14.5245 47.4613C14.4826 47.712 14.4957 47.9688 14.5631 48.2139C14.6305 48.459 14.7505 48.6865 14.9147 48.8806C15.0789 49.0746 15.2835 49.2305 15.5141 49.3375C15.7447 49.4445 15.9958 49.4999 16.25 49.5H40.75C41.0042 49.4999 41.2553 49.4445 41.4859 49.3375C41.7165 49.2305 41.9211 49.0746 42.0853 48.8806C42.2495 48.6865 42.3695 48.459 42.4369 48.2139C42.5043 47.9688 42.5174 47.712 42.4755 47.4613L41.065 39H47.75C48.2141 39 48.6592 38.8156 48.9874 38.4874C49.3156 38.1593 49.5 37.7141 49.5 37.25V19.75C49.5 19.2859 49.3156 18.8408 48.9874 18.5126C48.6592 18.1844 48.2141 18 47.75 18ZM39 14.5V18H37.25V14.5H39ZM23.25 11H33.75V18H23.25V11ZM18 14.5H19.75V18H18V14.5ZM18.3167 46L19.7273 37.5388C19.7273 37.4898 19.7185 37.4425 19.7273 37.3935C19.736 37.3445 19.75 37.3008 19.75 37.25V35.5H37.25V37.25C37.25 37.3008 37.2745 37.3428 37.278 37.3935C37.2815 37.4443 37.264 37.488 37.278 37.5388L38.6833 46H18.3167ZM46 35.5H40.75V33.75C40.75 33.2859 40.5656 32.8407 40.2374 32.5126C39.9092 32.1844 39.4641 32 39 32H18C17.5359 32 17.0908 32.1844 16.7626 32.5126C16.4344 32.8407 16.25 33.2859 16.25 33.75V35.5H11V21.5H46V35.5Z" fill="#383838"/>
<path d="M21.5 28.5H14.5C14.0359 28.5 13.5908 28.3156 13.2626 27.9874C12.9344 27.6592 12.75 27.2141 12.75 26.75C12.75 26.2859 12.9344 25.8408 13.2626 25.5126C13.5908 25.1844 14.0359 25 14.5 25H21.5C21.9641 25 22.4092 25.1844 22.7374 25.5126C23.0656 25.8408 23.25 26.2859 23.25 26.75C23.25 27.2141 23.0656 27.6592 22.7374 27.9874C22.4092 28.3156 21.9641 28.5 21.5 28.5Z" fill="#F46B5B"/>
</svg>
