<svg width="57" height="57" viewBox="0 0 57 57" fill="none" xmlns="http://www.w3.org/2000/svg">
<path d="M28.5 37.25C26.6435 37.25 24.863 36.5125 23.5503 35.1997C22.2375 33.887 21.5 32.1065 21.5 30.25V19.75C21.5 17.8935 22.2375 16.113 23.5503 14.8003C24.863 13.4875 26.6435 12.75 28.5 12.75C30.3565 12.75 32.137 13.4875 33.4497 14.8003C34.7625 16.113 35.5 17.8935 35.5 19.75V30.25C35.5 32.1065 34.7625 33.887 33.4497 35.1997C32.137 36.5125 30.3565 37.25 28.5 37.25ZM28.5 16.25C27.5717 16.25 26.6815 16.6187 26.0251 17.2751C25.3687 17.9315 25 18.8217 25 19.75V30.25C25 31.1783 25.3687 32.0685 26.0251 32.7249C26.6815 33.3813 27.5717 33.75 28.5 33.75C29.4283 33.75 30.3185 33.3813 30.9749 32.7249C31.6313 32.0685 32 31.1783 32 30.25V19.75C32 18.8217 31.6313 17.9315 30.9749 17.2751C30.3185 16.6187 29.4283 16.25 28.5 16.25Z" fill="#F46B5B"/>
<path d="M40.75 30.25V19.75C40.75 19.2859 40.5656 18.8408 40.2374 18.5126C39.9093 18.1844 39.4641 18 39 18C38.5359 18 38.0907 18.1844 37.7626 18.5126C37.4344 18.8408 37.25 19.2859 37.25 19.75V30.25C37.25 32.5706 36.3281 34.7962 34.6872 36.4372C33.0462 38.0781 30.8206 39 28.5 39C26.1794 39 23.9538 38.0781 22.3128 36.4372C20.6719 34.7962 19.75 32.5706 19.75 30.25V19.75C19.75 19.2859 19.5656 18.8408 19.2374 18.5126C18.9092 18.1844 18.4641 18 18 18C17.5359 18 17.0908 18.1844 16.7626 18.5126C16.4344 18.8408 16.25 19.2859 16.25 19.75V30.25C16.2553 33.1927 17.3189 36.0354 19.2467 38.2587C21.1745 40.4821 23.8377 41.9378 26.75 42.36V46H21.5C21.0359 46 20.5908 46.1844 20.2626 46.5126C19.9344 46.8407 19.75 47.2859 19.75 47.75C19.75 48.2141 19.9344 48.6593 20.2626 48.9874C20.5908 49.3156 21.0359 49.5 21.5 49.5H35.5C35.9641 49.5 36.4093 49.3156 36.7374 48.9874C37.0656 48.6593 37.25 48.2141 37.25 47.75C37.25 47.2859 37.0656 46.8407 36.7374 46.5126C36.4093 46.1844 35.9641 46 35.5 46H30.25V42.36C33.1623 41.9378 35.8255 40.4821 37.7533 38.2587C39.6811 36.0354 40.7447 33.1927 40.75 30.25Z" fill="#383838"/>
</svg>
