<svg width="57" height="57" viewBox="0 0 57 57" fill="none" xmlns="http://www.w3.org/2000/svg">
<path d="M40.75 14.9428V9.25C40.75 8.78587 40.5656 8.34075 40.2374 8.01256C39.9093 7.68437 39.4641 7.5 39 7.5H18C17.5359 7.5 17.0908 7.68437 16.7626 8.01256C16.4344 8.34075 16.25 8.78587 16.25 9.25V14.9428C15.2885 15.3499 14.4576 16.0138 13.8483 16.8617C13.2389 17.7096 12.8747 18.7089 12.7955 19.75H12.75C12.2859 19.75 11.8408 19.9344 11.5126 20.2626C11.1844 20.5908 11 21.0359 11 21.5C11 21.9641 11.1844 22.4092 11.5126 22.7374C11.8408 23.0656 12.2859 23.25 12.75 23.25V26.75C12.2859 26.75 11.8408 26.9344 11.5126 27.2626C11.1844 27.5908 11 28.0359 11 28.5C11 28.9641 11.1844 29.4093 11.5126 29.7374C11.8408 30.0656 12.2859 30.25 12.75 30.25V36.8055C12.7518 37.9279 13.0849 39.0249 13.7076 39.9588C14.3302 40.8927 15.2146 41.6221 16.25 42.0555V47.75C16.25 48.2141 16.4344 48.6592 16.7626 48.9874C17.0908 49.3156 17.5359 49.5 18 49.5H39C39.4641 49.5 39.9093 49.3156 40.2374 48.9874C40.5656 48.6592 40.75 48.2141 40.75 47.75V42.0573C41.7854 41.6238 42.6698 40.8945 43.2924 39.9605C43.9151 39.0266 44.2482 37.9297 44.25 36.8072V20.1945C44.2485 19.0718 43.9156 17.9745 43.2929 17.0402C42.6703 16.1059 41.7857 15.3763 40.75 14.9428ZM19.75 11H37.25V14.5H19.75V11ZM37.25 46H19.75V42.5H37.25V46ZM40.75 36.8055C40.7495 37.3874 40.5182 37.9453 40.1067 38.3567C39.6953 38.7682 39.1374 38.9995 38.5555 39H18.4445C17.8626 38.9995 17.3047 38.7682 16.8933 38.3567C16.4818 37.9453 16.2505 37.3874 16.25 36.8055V20.1945C16.2505 19.6126 16.4818 19.0547 16.8933 18.6433C17.3047 18.2318 17.8626 18.0005 18.4445 18H38.5555C39.1374 18.0005 39.6953 18.2318 40.1067 18.6433C40.5182 19.0547 40.7495 19.6126 40.75 20.1945V36.8055Z" fill="#383838"/>
<path d="M23.25 30.25C24.2884 30.25 25.3034 29.9421 26.1667 29.3652C27.0301 28.7883 27.703 27.9684 28.1004 27.0091C28.4977 26.0498 28.6017 24.9942 28.3991 23.9758C28.1966 22.9574 27.6965 22.0219 26.9623 21.2877C26.2281 20.5535 25.2926 20.0535 24.2742 19.8509C23.2558 19.6483 22.2002 19.7523 21.2409 20.1496C20.2816 20.547 19.4617 21.2199 18.8848 22.0833C18.3079 22.9466 18 23.9617 18 25C18 26.3924 18.5531 27.7277 19.5377 28.7123C20.5223 29.6969 21.8576 30.25 23.25 30.25ZM23.25 23.25C23.5961 23.25 23.9345 23.3526 24.2222 23.5449C24.51 23.7372 24.7343 24.0105 24.8668 24.3303C24.9992 24.6501 25.0339 25.0019 24.9664 25.3414C24.8989 25.6809 24.7322 25.9927 24.4874 26.2374C24.2427 26.4822 23.9309 26.6489 23.5914 26.7164C23.2519 26.7839 22.9001 26.7492 22.5803 26.6168C22.2605 26.4843 21.9872 26.26 21.7949 25.9723C21.6026 25.6845 21.5 25.3461 21.5 25C21.5 24.5359 21.6844 24.0908 22.0126 23.7626C22.3408 23.4344 22.7859 23.25 23.25 23.25ZM32 25H37.25C37.7141 25 38.1593 24.8156 38.4874 24.4874C38.8156 24.1593 39 23.7141 39 23.25C39 22.7859 38.8156 22.3408 38.4874 22.0126C38.1593 21.6844 37.7141 21.5 37.25 21.5H32C31.5359 21.5 31.0908 21.6844 30.7626 22.0126C30.4344 22.3408 30.25 22.7859 30.25 23.25C30.25 23.7141 30.4344 24.1593 30.7626 24.4874C31.0908 24.8156 31.5359 25 32 25ZM37.25 26.75H32C31.5359 26.75 31.0908 26.9344 30.7626 27.2626C30.4344 27.5908 30.25 28.0359 30.25 28.5C30.25 28.9641 30.4344 29.4093 30.7626 29.7374C31.0908 30.0656 31.5359 30.25 32 30.25H37.25C37.7141 30.25 38.1593 30.0656 38.4874 29.7374C38.8156 29.4093 39 28.9641 39 28.5C39 28.0359 38.8156 27.5908 38.4874 27.2626C38.1593 26.9344 37.7141 26.75 37.25 26.75ZM37.25 33.75H19.75C19.2859 33.75 18.8408 33.9344 18.5126 34.2626C18.1844 34.5908 18 35.0359 18 35.5C18 35.9641 18.1844 36.4093 18.5126 36.7374C18.8408 37.0656 19.2859 37.25 19.75 37.25H37.25C37.7141 37.25 38.1593 37.0656 38.4874 36.7374C38.8156 36.4093 39 35.9641 39 35.5C39 35.0359 38.8156 34.5908 38.4874 34.2626C38.1593 33.9344 37.7141 33.75 37.25 33.75Z" fill="#F46B5B"/>
</svg>
