<svg width="40" height="40" viewBox="0 0 40 40" fill="none" xmlns="http://www.w3.org/2000/svg">
<g clip-path="url(#clip0_823_32)">
<path d="M14.1834 33.3332H14.05C11.364 33.3097 8.71674 32.6892 6.30003 31.5165C5.85549 31.3077 5.48946 30.9621 5.25554 30.5302C5.02161 30.0984 4.93207 29.603 5.00003 29.1165C5.07394 28.6268 5.30068 28.173 5.64787 27.8198C5.99507 27.4666 6.44498 27.2321 6.93336 27.1499C8.43105 26.9501 9.87184 26.4452 11.1667 25.6665C8.91863 23.9089 7.18795 21.5758 6.15806 18.9145C5.12817 16.2533 4.83745 13.3629 5.3167 10.5499C5.38168 10.1043 5.5733 9.68676 5.86878 9.34697C6.16425 9.00718 6.55112 8.75943 6.98336 8.6332C7.40389 8.50114 7.85394 8.49549 8.27764 8.61697C8.70135 8.73846 9.08004 8.98171 9.3667 9.31654C10.34 10.5928 11.5632 11.6575 12.9615 12.4455C14.3599 13.2335 15.9041 13.7283 17.5 13.8999C17.5763 11.9363 18.4201 10.0811 19.85 8.7332C20.564 8.04949 21.407 7.51472 22.3297 7.16005C23.2525 6.80538 24.2366 6.6379 25.2247 6.66737C26.2128 6.69685 27.1852 6.92268 28.0852 7.33172C28.9851 7.74076 29.7947 8.32482 30.4667 9.04987C30.6418 9.20465 30.8593 9.30329 31.0911 9.33301C31.3229 9.36272 31.5582 9.32215 31.7667 9.21654C32.1641 9.02912 32.6066 8.95856 33.0425 9.01311C33.4785 9.06766 33.89 9.24506 34.2289 9.52461C34.5679 9.80417 34.8204 10.1743 34.9569 10.592C35.0934 11.0096 35.1084 11.4574 35 11.8832C34.6156 13.4667 33.8873 14.9462 32.8667 16.2165C32.6418 20.9578 30.5515 25.4178 27.0516 28.6242C23.5517 31.8306 18.9261 33.5233 14.1834 33.3332ZM14.1834 29.9999H14.3167C16.2545 30.0665 18.1862 29.7478 19.9999 29.0623C21.8136 28.3768 23.4732 27.3381 24.8824 26.0063C26.2917 24.6746 27.4225 23.0764 28.2095 21.3044C28.9964 19.5323 29.4237 17.6217 29.4667 15.6832C29.4942 15.152 29.7133 14.6487 30.0834 14.2665C30.4899 13.7519 30.8365 13.1928 31.1167 12.5999C30.5163 12.601 29.9224 12.4754 29.3738 12.2313C28.8253 11.9872 28.3344 11.63 27.9334 11.1832C27.5477 10.8008 27.0896 10.4992 26.5859 10.296C26.0822 10.0928 25.5431 9.99212 25 9.99987C24.4515 9.98569 23.9056 10.08 23.3937 10.2773C22.8817 10.4747 22.4138 10.7712 22.0167 11.1499C21.481 11.6582 21.0882 12.2983 20.8776 13.0061C20.667 13.714 20.646 14.4647 20.8167 15.1832L21.25 17.0832L19.3 17.2165C17.3019 17.3795 15.2921 17.1061 13.4101 16.4155C11.528 15.7248 9.8185 14.6333 8.40003 13.2165C8.3392 15.4105 8.88803 17.5784 9.98552 19.4792C11.083 21.3799 12.6861 22.939 14.6167 23.9832L16.2 24.8832L15.15 26.3832C14.0145 27.8724 12.4587 28.987 10.6834 29.5832C11.8222 29.8686 12.9926 30.0086 14.1667 29.9999H14.1834Z" fill="#FAFAFA"/>
</g>
<defs>
<clipPath id="clip0_823_32">
<rect width="40" height="40" fill="white"/>
</clipPath>
</defs>
</svg>
