<svg width="32" height="32" viewBox="0 0 32 32" fill="none" xmlns="http://www.w3.org/2000/svg">
<path d="M12 10.666L6.02133 21.3327H2.66667V13.3327C2.64533 12.07 2.29867 11.486 1.33333 10.666H5.33333V17.3327L9.33333 10.666H12ZM13.312 10.666L9.34267 21.3327H12L16 10.666H13.312ZM28.6667 21.3327L28.708 19.2087L25.6667 19.166L24.604 21.3327H22.3227L28 10.666H30.6667L31.396 21.3327H28.6667ZM28.6667 13.374L26.6667 17.3327H28.6453L28.6667 13.374ZM19.444 12.9713C20.2453 10.97 22.6667 12.9167 23 13.1113C23.2773 12.6953 23.7507 12.0287 24 11.6673C23.056 10.5833 19.2427 9.52735 17.3053 11.918C14 16.002 20.8053 17.1967 19.6107 18.834C18.8413 19.8887 16.7773 19.722 15.2773 18.722C15.0547 19.1393 14.36 20.3887 14.36 20.3887C15.5827 21.1967 16.4987 21.334 17.7773 21.334C19.056 21.334 21.5907 21.1327 22.3227 18.6393C23.3893 14.9993 18.556 15.194 19.444 12.9713ZM0 6.66602H32V7.99935H0V6.66602ZM0 23.9993H32V25.3327H0V23.9993Z" fill="#383838"/>
</svg>
